<svg id="visual" viewBox="0 0 900 600" width="900" height="600" xmlns="http://www.w3.org/2000/svg" xmlns:xlink="http://www.w3.org/1999/xlink" version="1.1"><rect x="0" y="0" width="900" height="600" fill="#1c1c1c"></rect><defs><linearGradient id="grad1_0" x1="33.3%" y1="100%" x2="100%" y2="0%"><stop offset="20%" stop-color="#007d6e" stop-opacity="1"></stop><stop offset="80%" stop-color="#007d6e" stop-opacity="1"></stop></linearGradient></defs><defs><linearGradient id="grad1_1" x1="33.3%" y1="100%" x2="100%" y2="0%"><stop offset="20%" stop-color="#007d6e" stop-opacity="1"></stop><stop offset="80%" stop-color="#146e61" stop-opacity="1"></stop></linearGradient></defs><defs><linearGradient id="grad1_2" x1="33.3%" y1="100%" x2="100%" y2="0%"><stop offset="20%" stop-color="#1c5f55" stop-opacity="1"></stop><stop offset="80%" stop-color="#146e61" stop-opacity="1"></stop></linearGradient></defs><defs><linearGradient id="grad1_3" x1="33.3%" y1="100%" x2="100%" y2="0%"><stop offset="20%" stop-color="#1c5f55" stop-opacity="1"></stop><stop offset="80%" stop-color="#205149" stop-opacity="1"></stop></linearGradient></defs><defs><linearGradient id="grad1_4" x1="33.3%" y1="100%" x2="100%" y2="0%"><stop offset="20%" stop-color="#21433d" stop-opacity="1"></stop><stop offset="80%" stop-color="#205149" stop-opacity="1"></stop></linearGradient></defs><defs><linearGradient id="grad1_5" x1="33.3%" y1="100%" x2="100%" y2="0%"><stop offset="20%" stop-color="#21433d" stop-opacity="1"></stop><stop offset="80%" stop-color="#213632" stop-opacity="1"></stop></linearGradient></defs><defs><linearGradient id="grad1_6" x1="33.3%" y1="100%" x2="100%" y2="0%"><stop offset="20%" stop-color="#1f2927" stop-opacity="1"></stop><stop offset="80%" stop-color="#213632" stop-opacity="1"></stop></linearGradient></defs><defs><linearGradient id="grad1_7" x1="33.3%" y1="100%" x2="100%" y2="0%"><stop offset="20%" stop-color="#1f2927" stop-opacity="1"></stop><stop offset="80%" stop-color="#1c1c1c" stop-opacity="1"></stop></linearGradient></defs><defs><linearGradient id="grad2_0" x1="0%" y1="100%" x2="66.7%" y2="0%"><stop offset="20%" stop-color="#007d6e" stop-opacity="1"></stop><stop offset="80%" stop-color="#007d6e" stop-opacity="1"></stop></linearGradient></defs><defs><linearGradient id="grad2_1" x1="0%" y1="100%" x2="66.7%" y2="0%"><stop offset="20%" stop-color="#146e61" stop-opacity="1"></stop><stop offset="80%" stop-color="#007d6e" stop-opacity="1"></stop></linearGradient></defs><defs><linearGradient id="grad2_2" x1="0%" y1="100%" x2="66.7%" y2="0%"><stop offset="20%" stop-color="#146e61" stop-opacity="1"></stop><stop offset="80%" stop-color="#1c5f55" stop-opacity="1"></stop></linearGradient></defs><defs><linearGradient id="grad2_3" x1="0%" y1="100%" x2="66.7%" y2="0%"><stop offset="20%" stop-color="#205149" stop-opacity="1"></stop><stop offset="80%" stop-color="#1c5f55" stop-opacity="1"></stop></linearGradient></defs><defs><linearGradient id="grad2_4" x1="0%" y1="100%" x2="66.7%" y2="0%"><stop offset="20%" stop-color="#205149" stop-opacity="1"></stop><stop offset="80%" stop-color="#21433d" stop-opacity="1"></stop></linearGradient></defs><defs><linearGradient id="grad2_5" x1="0%" y1="100%" x2="66.7%" y2="0%"><stop offset="20%" stop-color="#213632" stop-opacity="1"></stop><stop offset="80%" stop-color="#21433d" stop-opacity="1"></stop></linearGradient></defs><defs><linearGradient id="grad2_6" x1="0%" y1="100%" x2="66.7%" y2="0%"><stop offset="20%" stop-color="#213632" stop-opacity="1"></stop><stop offset="80%" stop-color="#1f2927" stop-opacity="1"></stop></linearGradient></defs><defs><linearGradient id="grad2_7" x1="0%" y1="100%" x2="66.7%" y2="0%"><stop offset="20%" stop-color="#1c1c1c" stop-opacity="1"></stop><stop offset="80%" stop-color="#1f2927" stop-opacity="1"></stop></linearGradient></defs><g transform="translate(900, 600)"><path d="M-540.8 0C-519.4 -32.5 -498.1 -65 -488.4 -97.2C-478.8 -129.3 -480.9 -161.2 -479.5 -198.6C-478.1 -236.1 -473.1 -279.1 -434 -290C-394.9 -300.9 -321.7 -279.6 -286.4 -286.4C-251.1 -293.2 -253.7 -328 -246.7 -369.2C-239.6 -410.3 -222.9 -457.9 -193.3 -466.6C-163.6 -475.3 -121.2 -445.2 -86.8 -436.4C-52.5 -427.7 -26.2 -440.4 0 -453L0 0Z" fill="#1e2221"></path><path d="M-473.2 0C-454.5 -28.4 -435.8 -56.9 -427.4 -85C-418.9 -113.2 -420.8 -141 -419.6 -173.8C-418.3 -206.6 -414 -244.2 -379.8 -253.8C-345.6 -263.3 -281.5 -244.7 -250.6 -250.6C-219.7 -256.5 -222 -287 -215.8 -323C-209.7 -359.1 -195 -400.6 -169.1 -408.2C-143.2 -415.9 -106 -389.5 -76 -381.9C-45.9 -374.3 -23 -385.3 0 -396.4L0 0Z" fill="#202f2c"></path><path d="M-405.6 0C-389.6 -24.4 -373.5 -48.7 -366.3 -72.9C-359.1 -97 -360.7 -120.9 -359.6 -149C-358.6 -177 -354.8 -209.3 -325.5 -217.5C-296.2 -225.7 -241.3 -209.7 -214.8 -214.8C-188.3 -219.9 -190.3 -246 -185 -276.9C-179.7 -307.8 -167.2 -343.4 -144.9 -349.9C-122.7 -356.4 -90.9 -333.9 -65.1 -327.3C-39.3 -320.8 -19.7 -330.3 0 -339.7L0 0Z" fill="#213c37"></path><path d="M-338 0C-324.7 -20.3 -311.3 -40.6 -305.3 -60.7C-299.2 -80.8 -300.6 -100.7 -299.7 -124.1C-298.8 -147.5 -295.7 -174.5 -271.3 -181.3C-246.8 -188.1 -201 -174.8 -179 -179C-156.9 -183.2 -158.6 -205 -154.2 -230.7C-149.8 -256.5 -139.3 -286.2 -120.8 -291.6C-102.3 -297 -75.7 -278.2 -54.3 -272.8C-32.8 -267.3 -16.4 -275.2 0 -283.1L0 0Z" fill="#214a43"></path><path d="M-270.4 0C-259.7 -16.2 -249 -32.5 -244.2 -48.6C-239.4 -64.7 -240.5 -80.6 -239.7 -99.3C-239 -118 -236.6 -139.6 -217 -145C-197.5 -150.4 -160.8 -139.8 -143.2 -143.2C-125.5 -146.6 -126.9 -164 -123.3 -184.6C-119.8 -205.2 -111.4 -228.9 -96.6 -233.3C-81.8 -237.6 -60.6 -222.6 -43.4 -218.2C-26.2 -213.9 -13.1 -220.2 0 -226.5L0 0Z" fill="#1e584f"></path><path d="M-202.8 0C-194.8 -12.2 -186.8 -24.4 -183.2 -36.4C-179.5 -48.5 -180.3 -60.4 -179.8 -74.5C-179.3 -88.5 -177.4 -104.7 -162.8 -108.8C-148.1 -112.8 -120.6 -104.9 -107.4 -107.4C-94.2 -109.9 -95.1 -123 -92.5 -138.4C-89.9 -153.9 -83.6 -171.7 -72.5 -175C-61.4 -178.2 -45.4 -166.9 -32.6 -163.7C-19.7 -160.4 -9.8 -165.1 0 -169.9L0 0Z" fill="#19675b"></path><path d="M-135.2 0C-129.9 -8.1 -124.5 -16.2 -122.1 -24.3C-119.7 -32.3 -120.2 -40.3 -119.9 -49.7C-119.5 -59 -118.3 -69.8 -108.5 -72.5C-98.7 -75.2 -80.4 -69.9 -71.6 -71.6C-62.8 -73.3 -63.4 -82 -61.7 -92.3C-59.9 -102.6 -55.7 -114.5 -48.3 -116.6C-40.9 -118.8 -30.3 -111.3 -21.7 -109.1C-13.1 -106.9 -6.6 -110.1 0 -113.2L0 0Z" fill="#0c7568"></path><path d="M-67.6 0C-64.9 -4.1 -62.3 -8.1 -61.1 -12.1C-59.8 -16.2 -60.1 -20.1 -59.9 -24.8C-59.8 -29.5 -59.1 -34.9 -54.3 -36.3C-49.4 -37.6 -40.2 -35 -35.8 -35.8C-31.4 -36.6 -31.7 -41 -30.8 -46.1C-30 -51.3 -27.9 -57.2 -24.2 -58.3C-20.5 -59.4 -15.1 -55.6 -10.9 -54.6C-6.6 -53.5 -3.3 -55 0 -56.6L0 0Z" fill="#007d6e"></path></g><g transform="translate(0, 0)"><path d="M479 0C471.6 31.7 464.2 63.4 443.3 88.2C422.4 113 388 131 370.5 153.5C353 175.9 352.4 202.9 351.7 235C351.1 267.1 350.4 304.3 344.4 344.4C338.3 384.4 326.9 427.2 300.5 449.7C274 472.2 232.5 474.3 193.3 466.6C154 458.8 117.1 441 85.3 428.6C53.4 416.2 26.7 409.1 0 402L0 0Z" fill="#1e2221"></path><path d="M419.1 0C412.7 27.7 406.2 55.4 387.9 77.2C369.6 98.9 339.5 114.6 324.2 134.3C308.8 153.9 308.3 177.5 307.7 205.6C307.2 233.7 306.6 266.3 301.3 301.3C296 336.3 286.1 373.8 262.9 393.5C239.8 413.2 203.4 415.1 169.1 408.2C134.8 401.4 102.4 385.9 74.6 375C46.7 364.2 23.4 358 0 351.8L0 0Z" fill="#202f2c"></path><path d="M359.3 0C353.7 23.8 348.2 47.5 332.5 66.1C316.8 84.8 291 98.2 277.9 115.1C264.7 131.9 264.3 152.2 263.8 176.3C263.3 200.3 262.8 228.3 258.3 258.3C253.7 288.3 245.2 320.4 225.4 337.3C205.5 354.1 174.4 355.8 144.9 349.9C115.5 344.1 87.8 330.8 63.9 321.5C40.1 312.1 20 306.8 0 301.5L0 0Z" fill="#213c37"></path><path d="M299.4 0C294.8 19.8 290.1 39.6 277.1 55.1C264 70.6 242.5 81.9 231.5 95.9C220.6 110 220.2 126.8 219.8 146.9C219.4 166.9 219 190.2 215.2 215.2C211.5 240.2 204.3 267 187.8 281.1C171.3 295.1 145.3 296.5 120.8 291.6C96.3 286.7 73.2 275.6 53.3 267.9C33.4 260.1 16.7 255.7 0 251.3L0 0Z" fill="#214a43"></path><path d="M239.5 0C235.8 15.8 232.1 31.7 221.7 44.1C211.2 56.5 194 65.5 185.2 76.7C176.5 88 176.2 101.5 175.9 117.5C175.5 133.6 175.2 152.2 172.2 172.2C169.2 192.2 163.5 213.6 150.2 224.8C137 236.1 116.2 237.2 96.6 233.3C77 229.4 58.5 220.5 42.6 214.3C26.7 208.1 13.4 204.5 0 201L0 0Z" fill="#1e584f"></path><path d="M179.6 0C176.9 11.9 174.1 23.8 166.2 33.1C158.4 42.4 145.5 49.1 138.9 57.5C132.4 66 132.1 76.1 131.9 88.1C131.7 100.2 131.4 114.1 129.1 129.1C126.9 144.1 122.6 160.2 112.7 168.6C102.8 177.1 87.2 177.9 72.5 175C57.8 172 43.9 165.4 32 160.7C20 156.1 10 153.4 0 150.8L0 0Z" fill="#19675b"></path><path d="M119.8 0C117.9 7.9 116.1 15.8 110.8 22C105.6 28.3 97 32.7 92.6 38.4C88.2 44 88.1 50.7 87.9 58.8C87.8 66.8 87.6 76.1 86.1 86.1C84.6 96.1 81.7 106.8 75.1 112.4C68.5 118 58.1 118.6 48.3 116.6C38.5 114.7 29.3 110.3 21.3 107.2C13.4 104 6.7 102.3 0 100.5L0 0Z" fill="#0c7568"></path><path d="M59.9 0C59 4 58 7.9 55.4 11C52.8 14.1 48.5 16.4 46.3 19.2C44.1 22 44 25.4 44 29.4C43.9 33.4 43.8 38 43 43C42.3 48 40.9 53.4 37.6 56.2C34.3 59 29.1 59.3 24.2 58.3C19.3 57.3 14.6 55.1 10.7 53.6C6.7 52 3.3 51.1 0 50.3L0 0Z" fill="#007d6e"></path></g></svg>